<?xml version="1.0" encoding="utf-8"?>
<!-- Generator: Adobe Illustrator 25.0.0, SVG Export Plug-In . SVG Version: 6.00 Build 0)  -->
<svg version="1.1" id="Layer_1" xmlns="http://www.w3.org/2000/svg" xmlns:xlink="http://www.w3.org/1999/xlink" x="0px" y="0px"
	 viewBox="0 0 462.05 274.96" style="enable-background:new 0 0 462.05 274.96;" xml:space="preserve">
<style type="text/css">
	.st0{fill:#666666;}
	.st1{fill:#4D4D4D;}
	.st2{fill:#808080;}
	.st3{fill:#CCCCCC;}
</style>
<g>
	<path class="st0" d="M11.2,103.87l227.16,154.86c3.86,2.63,4.86,7.89,2.22,11.76s-7.89,4.86-11.76,2.22
		c-0.14-0.09-0.29-0.21-0.42-0.31L11.2,103.87z"/>
</g>
<g>
	<path class="st0" d="M451.61,103.08L238.71,272.35c-3.66,2.91-8.98,2.3-11.89-1.36c-2.91-3.66-2.3-8.98,1.36-11.89
		c0.13-0.1,0.29-0.22,0.42-0.31L451.61,103.08z"/>
</g>
<g>
	<line class="st1" x1="11.27" y1="52.78" x2="233.45" y2="214.48"/>
	<path class="st2" d="M11.27,52.78l227.16,154.86c3.86,2.63,4.86,7.89,2.22,11.76s-7.89,4.86-11.76,2.22
		c-0.14-0.09-0.29-0.21-0.42-0.31L11.27,52.78z"/>
</g>
<g>
	<line class="st1" x1="451.67" y1="51.99" x2="233.72" y2="214.48"/>
	<path class="st2" d="M451.67,51.99L238.77,221.26c-3.66,2.91-8.98,2.3-11.89-1.36c-2.91-3.66-2.3-8.98,1.36-11.89
		c0.13-0.1,0.29-0.22,0.42-0.31L451.67,51.99z"/>
</g>
<g>
	<path class="st3" d="M11.27,1.79l227.16,154.86c3.86,2.63,4.86,7.89,2.22,11.76s-7.89,4.86-11.76,2.22
		c-0.14-0.09-0.29-0.21-0.42-0.31L11.27,1.79z"/>
</g>
<g>
	<path class="st3" d="M451.67,1L238.77,170.27c-3.66,2.91-8.98,2.3-11.89-1.36c-2.91-3.66-2.3-8.98,1.36-11.89
		c0.13-0.1,0.29-0.22,0.42-0.31L451.67,1z"/>
</g>
<g>
</g>
<g>
</g>
<g>
</g>
<g>
</g>
<g>
</g>
</svg>
